STARTFONT 2.1
COMMENT
COMMENT  Copyright (c) 1999, Thomas A. Fine
COMMENT
COMMENT  License to copy and distribute for both commercial and
COMMENT  non-commercial use is herby granted, provided this notice
COMMENT  is preserved.
COMMENT
COMMENT  Email to my last name at head.cfa.harvard.edu
COMMENT  http://hea-www.harvard.edu/~fine/
COMMENT
COMMENT  Produced with bdfedit, a tcl/tk font editing program
COMMENT  written by Thomas A. Fine
COMMENT
FONT dagger
SIZE 13 72 72
FONTBOUNDINGBOX 9 14 0 -4
STARTPROPERTIES 11
FOUNDRY "Fine"
FAMILY_NAME "dagger"
WEIGHT_NAME "Medium"
SLANT "R"
SETWIDTH_NAME "Normal"
SPACING "c"
CHARSET_REGISTRY "ISO-8859"
CHARSET_ENCODING "1"
COPYRIGHT "Designer of this font retains full rights under the law"
FONT_ASCENT  10
FONT_DESCENT 4
ENDPROPERTIES
CHARS 221
STARTCHAR C001
ENCODING 1
SWIDTH 692 0
DWIDTH 9 0
BBX 7 7 1 1
BITMAP
10
38
7c
ee
7c
38
10
ENDCHAR
STARTCHAR C002
ENCODING 2
SWIDTH 692 0
DWIDTH 9 0
BBX 8 13 0 -3
BITMAP
55
aa
55
aa
55
aa
55
aa
55
aa
55
aa
55
ENDCHAR
STARTCHAR C003
ENCODING 3
SWIDTH 692 0
DWIDTH 9 0
BBX 8 12 0 -2
BITMAP
cc
48
78
48
48
cc
1f
15
04
04
04
0e
ENDCHAR
STARTCHAR C004
ENCODING 4
SWIDTH 692 0
DWIDTH 9 0
BBX 8 12 0 -2
BITMAP
78
c8
40
70
40
e0
0f
19
08
0e
08
1c
ENDCHAR
STARTCHAR C005
ENCODING 5
SWIDTH 692 0
DWIDTH 9 0
BBX 8 12 0 -2
BITMAP
28
50
c0
c8
50
20
0f
19
0a
0e
09
09
ENDCHAR
STARTCHAR C006
ENCODING 6
SWIDTH 692 0
DWIDTH 9 0
BBX 8 12 0 -2
BITMAP
40
c0
40
40
44
7c
0f
19
08
0e
08
1c
ENDCHAR
STARTCHAR C007
ENCODING 7
SWIDTH 692 0
DWIDTH 9 0
BBX 5 5 2 5
BITMAP
20
50
88
50
20
ENDCHAR
STARTCHAR C010
ENCODING 8
SWIDTH 692 0
DWIDTH 9 0
BBX 5 7 2 1
BITMAP
20
20
f8
20
20
00
f8
ENDCHAR
STARTCHAR C011
ENCODING 9
SWIDTH 692 0
DWIDTH 9 0
BBX 8 12 0 -2
BITMAP
4c
e4
54
54
4c
44
10
30
10
10
11
1f
ENDCHAR
STARTCHAR C012
ENCODING 10
SWIDTH 692 0
DWIDTH 9 0
BBX 7 12 0 -2
BITMAP
44
c6
28
28
10
10
3e
2a
08
08
08
1c
ENDCHAR
STARTCHAR C013
ENCODING 11
SWIDTH 692 0
DWIDTH 9 0
BBX 8 11 0 -1
BITMAP
08
08
08
08
08
08
08
ff
0a
0c
08
ENDCHAR
STARTCHAR C014
ENCODING 12
SWIDTH 692 0
DWIDTH 9 0
BBX 8 10 0 -4
BITMAP
08
0c
0a
ff
08
08
08
08
08
08
ENDCHAR
STARTCHAR C015
ENCODING 13
SWIDTH 692 0
DWIDTH 9 0
BBX 8 10 1 -4
BITMAP
10
30
50
ff
10
10
10
10
10
10
ENDCHAR
STARTCHAR C016
ENCODING 14
SWIDTH 692 0
DWIDTH 9 0
BBX 8 11 1 -1
BITMAP
10
10
10
10
10
10
10
ff
50
30
10
ENDCHAR
STARTCHAR C017
ENCODING 15
SWIDTH 692 0
DWIDTH 9 0
BBX 9 14 0 -4
BITMAP
0800
0800
0800
0800
0800
1400
2200
c180
2200
1400
0800
0800
0800
0800
ENDCHAR
STARTCHAR C020
ENCODING 16
SWIDTH 692 0
DWIDTH 9 0
BBX 9 1 0 8
BITMAP
ff80
ENDCHAR
STARTCHAR C021
ENCODING 17
SWIDTH 692 0
DWIDTH 9 0
BBX 9 1 0 5
BITMAP
ff80
ENDCHAR
STARTCHAR C022
ENCODING 18
SWIDTH 692 0
DWIDTH 9 0
BBX 9 1 0 2
BITMAP
ff80
ENDCHAR
STARTCHAR C023
ENCODING 19
SWIDTH 692 0
DWIDTH 9 0
BBX 9 1 0 -1
BITMAP
ff80
ENDCHAR
STARTCHAR C024
ENCODING 20
SWIDTH 692 0
DWIDTH 9 0
BBX 9 1 0 -4
BITMAP
ff80
ENDCHAR
STARTCHAR C025
ENCODING 21
SWIDTH 692 0
DWIDTH 9 0
BBX 8 14 1 -4
BITMAP
10
10
10
10
10
30
50
ff
50
30
10
10
10
10
ENDCHAR
STARTCHAR C026
ENCODING 22
SWIDTH 692 0
DWIDTH 9 0
BBX 8 14 0 -4
BITMAP
08
08
08
08
08
0c
0a
ff
0a
0c
08
08
08
08
ENDCHAR
STARTCHAR C027
ENCODING 23
SWIDTH 692 0
DWIDTH 9 0
BBX 9 11 0 -1
BITMAP
0800
0800
0800
0800
0800
0800
0800
ff80
2a00
1c00
0800
ENDCHAR
STARTCHAR C030
ENCODING 24
SWIDTH 692 0
DWIDTH 9 0
BBX 9 10 0 -4
BITMAP
0800
1c00
2a00
ff80
0800
0800
0800
0800
0800
0800
ENDCHAR
STARTCHAR C031
ENCODING 25
SWIDTH 692 0
DWIDTH 9 0
BBX 7 14 1 -4
BITMAP
10
10
10
10
10
28
44
82
44
28
10
10
10
10
ENDCHAR
STARTCHAR C032
ENCODING 26
SWIDTH 692 0
DWIDTH 9 0
BBX 5 9 2 1
BITMAP
18
10
60
80
60
10
18
00
f8
ENDCHAR
STARTCHAR C033
ENCODING 27
SWIDTH 692 0
DWIDTH 9 0
BBX 5 9 2 1
BITMAP
c0
40
30
08
30
40
c0
00
f8
ENDCHAR
STARTCHAR C034
ENCODING 28
SWIDTH 692 0
DWIDTH 9 0
BBX 8 7 0 0
BITMAP
7f
a2
22
22
22
22
42
ENDCHAR
STARTCHAR C035
ENCODING 29
SWIDTH 692 0
DWIDTH 9 0
BBX 7 7 1 1
BITMAP
0c
08
fe
10
fe
20
40
ENDCHAR
STARTCHAR C036
ENCODING 30
SWIDTH 692 0
DWIDTH 9 0
BBX 8 10 0 -1
BITMAP
30
28
24
a0
f8
a0
22
21
bf
c0
ENDCHAR
STARTCHAR C037
ENCODING 31
SWIDTH 692 0
DWIDTH 9 0
BBX 2 2 3 3
BITMAP
40
c0
ENDCHAR
STARTCHAR C040
ENCODING 32
SWIDTH 692 0
DWIDTH 9 0
BBX 0 0 0 0
BITMAP
ENDCHAR
STARTCHAR C041
ENCODING 33
SWIDTH 692 0
DWIDTH 9 0
BBX 4 10 2 -1
BITMAP
40
60
70
60
60
40
40
00
60
c0
ENDCHAR
STARTCHAR C042
ENCODING 34
SWIDTH 692 0
DWIDTH 9 0
BBX 3 2 3 7
BITMAP
a0
a0
ENDCHAR
STARTCHAR C043
ENCODING 35
SWIDTH 692 0
DWIDTH 9 0
BBX 7 10 1 0
BITMAP
6c
28
aa
fe
28
28
fe
aa
28
6c
ENDCHAR
STARTCHAR C044
ENCODING 36
SWIDTH 692 0
DWIDTH 9 0
BBX 7 11 1 -1
BITMAP
10
10
38
d6
52
38
94
d6
38
10
10
ENDCHAR
STARTCHAR C045
ENCODING 37
SWIDTH 692 0
DWIDTH 9 0
BBX 7 9 1 0
BITMAP
4e
a4
a8
48
10
24
2a
4a
e4
ENDCHAR
STARTCHAR C046
ENCODING 38
SWIDTH 692 0
DWIDTH 9 0
BBX 8 10 0 0
BITMAP
10
6c
44
6c
10
28
c5
82
c5
39
ENDCHAR
STARTCHAR C047
ENCODING 39
SWIDTH 692 0
DWIDTH 9 0
BBX 3 3 2 6
BITMAP
60
40
80
ENDCHAR
STARTCHAR C050
ENCODING 40
SWIDTH 692 0
DWIDTH 9 0
BBX 2 9 4 0
BITMAP
40
80
80
80
80
80
80
80
40
ENDCHAR
STARTCHAR C051
ENCODING 41
SWIDTH 692 0
DWIDTH 9 0
BBX 2 9 3 0
BITMAP
80
40
40
40
40
40
40
40
80
ENDCHAR
STARTCHAR C052
ENCODING 42
SWIDTH 692 0
DWIDTH 9 0
BBX 7 7 1 1
BITMAP
38
10
d6
7c
d6
10
38
ENDCHAR
STARTCHAR C053
ENCODING 43
SWIDTH 692 0
DWIDTH 9 0
BBX 5 5 2 2
BITMAP
20
20
f8
20
20
ENDCHAR
STARTCHAR C054
ENCODING 44
SWIDTH 692 0
DWIDTH 9 0
BBX 3 3 2 -1
BITMAP
60
40
80
ENDCHAR
STARTCHAR C055
ENCODING 45
SWIDTH 692 0
DWIDTH 9 0
BBX 5 1 2 4
BITMAP
f8
ENDCHAR
STARTCHAR C056
ENCODING 46
SWIDTH 692 0
DWIDTH 9 0
BBX 2 2 3 0
BITMAP
80
c0
ENDCHAR
STARTCHAR C057
ENCODING 47
SWIDTH 692 0
DWIDTH 9 0
BBX 7 7 1 1
BITMAP
02
04
08
10
20
40
c0
ENDCHAR
STARTCHAR C060
ENCODING 48
SWIDTH 692 0
DWIDTH 9 0
BBX 7 9 1 0
BITMAP
10
28
c6
8a
92
a2
c6
28
10
ENDCHAR
STARTCHAR C061
ENCODING 49
SWIDTH 692 0
DWIDTH 9 0
BBX 4 9 2 0
BITMAP
20
20
60
a0
20
20
20
20
70
ENDCHAR
STARTCHAR C062
ENCODING 50
SWIDTH 692 0
DWIDTH 9 0
BBX 7 9 1 0
BITMAP
30
4c
82
44
08
10
20
42
fe
ENDCHAR
STARTCHAR C063
ENCODING 51
SWIDTH 692 0
DWIDTH 9 0
BBX 7 9 1 0
BITMAP
30
4c
c6
04
08
04
c6
4c
30
ENDCHAR
STARTCHAR C064
ENCODING 52
SWIDTH 692 0
DWIDTH 9 0
BBX 6 9 1 0
BITMAP
08
18
28
28
4c
b8
c8
08
1c
ENDCHAR
STARTCHAR C065
ENCODING 53
SWIDTH 692 0
DWIDTH 9 0
BBX 7 9 1 0
BITMAP
7e
42
90
e8
86
02
c6
28
10
ENDCHAR
STARTCHAR C066
ENCODING 54
SWIDTH 692 0
DWIDTH 9 0
BBX 7 10 1 0
BITMAP
08
10
20
40
98
e6
82
c6
28
10
ENDCHAR
STARTCHAR C067
ENCODING 55
SWIDTH 692 0
DWIDTH 9 0
BBX 8 9 1 0
BITMAP
ff
82
44
04
08
08
10
10
38
ENDCHAR
STARTCHAR C070
ENCODING 56
SWIDTH 692 0
DWIDTH 9 0
BBX 7 9 1 0
BITMAP
10
6c
c6
6c
10
6c
c6
6c
10
ENDCHAR
STARTCHAR C071
ENCODING 57
SWIDTH 692 0
DWIDTH 9 0
BBX 7 10 1 -1
BITMAP
10
28
c6
82
ce
32
04
08
10
20
ENDCHAR
STARTCHAR C072
ENCODING 58
SWIDTH 692 0
DWIDTH 9 0
BBX 3 8 2 0
BITMAP
c0
60
00
00
00
00
c0
60
ENDCHAR
STARTCHAR C073
ENCODING 59
SWIDTH 692 0
DWIDTH 9 0
BBX 3 9 2 -1
BITMAP
c0
60
00
00
00
00
60
40
80
ENDCHAR
STARTCHAR C074
ENCODING 60
SWIDTH 692 0
DWIDTH 9 0
BBX 5 9 2 0
BITMAP
18
10
20
40
80
40
20
10
18
ENDCHAR
STARTCHAR C075
ENCODING 61
SWIDTH 692 0
DWIDTH 9 0
BBX 5 3 2 3
BITMAP
f8
00
f8
ENDCHAR
STARTCHAR C076
ENCODING 62
SWIDTH 692 0
DWIDTH 9 0
BBX 5 9 2 0
BITMAP
c0
40
20
10
08
10
20
40
c0
ENDCHAR
STARTCHAR C077
ENCODING 63
SWIDTH 692 0
DWIDTH 9 0
BBX 7 9 1 0
BITMAP
10
28
c6
8c
10
30
10
00
10
ENDCHAR
STARTCHAR C100
ENCODING 64
SWIDTH 692 0
DWIDTH 9 0
BBX 7 9 1 0
BITMAP
10
28
c6
92
ae
90
c0
28
10
ENDCHAR
STARTCHAR C101
ENCODING 65
SWIDTH 692 0
DWIDTH 9 0
BBX 9 9 0 0
BITMAP
1800
2800
1400
1400
2380
7e00
c100
4100
e380
ENDCHAR
STARTCHAR C102
ENCODING 66
SWIDTH 692 0
DWIDTH 9 0
BBX 9 9 0 0
BITMAP
7e00
a100
2200
2600
2900
3080
2100
2100
fe00
ENDCHAR
STARTCHAR C103
ENCODING 67
SWIDTH 692 0
DWIDTH 9 0
BBX 7 9 1 0
BITMAP
10
2a
c6
80
80
80
c2
2c
10
ENDCHAR
STARTCHAR C104
ENCODING 68
SWIDTH 692 0
DWIDTH 9 0
BBX 9 9 0 0
BITMAP
7800
a400
2200
2100
2080
2080
2100
2200
fc00
ENDCHAR
STARTCHAR C105
ENCODING 69
SWIDTH 692 0
DWIDTH 9 0
BBX 8 9 0 0
BITMAP
7f
a1
21
24
3e
24
21
21
ff
ENDCHAR
STARTCHAR C106
ENCODING 70
SWIDTH 692 0
DWIDTH 9 0
BBX 8 9 0 0
BITMAP
7f
a1
21
24
3e
24
20
20
f8
ENDCHAR
STARTCHAR C107
ENCODING 71
SWIDTH 692 0
DWIDTH 9 0
BBX 8 9 1 0
BITMAP
10
2a
c6
80
90
8c
c2
2d
10
ENDCHAR
STARTCHAR C110
ENCODING 72
SWIDTH 692 0
DWIDTH 9 0
BBX 9 9 0 0
BITMAP
6300
a280
2200
2300
2e00
7200
2200
2200
7700
ENDCHAR
STARTCHAR C111
ENCODING 73
SWIDTH 692 0
DWIDTH 9 0
BBX 7 9 1 0
BITMAP
fe
54
10
10
10
10
10
54
fe
ENDCHAR
STARTCHAR C112
ENCODING 74
SWIDTH 692 0
DWIDTH 9 0
BBX 8 9 1 0
BITMAP
06
05
04
04
04
44
84
48
30
ENDCHAR
STARTCHAR C113
ENCODING 75
SWIDTH 692 0
DWIDTH 9 0
BBX 9 9 0 0
BITMAP
6080
a900
2a00
2400
2a00
3200
2100
2100
7180
ENDCHAR
STARTCHAR C114
ENCODING 76
SWIDTH 692 0
DWIDTH 9 0
BBX 8 9 0 0
BITMAP
60
a0
20
20
20
20
22
21
ff
ENDCHAR
STARTCHAR C115
ENCODING 77
SWIDTH 692 0
DWIDTH 9 0
BBX 9 9 0 0
BITMAP
6300
b680
3600
2a00
2a00
2200
2200
2200
7700
ENDCHAR
STARTCHAR C116
ENCODING 78
SWIDTH 692 0
DWIDTH 9 0
BBX 9 9 0 0
BITMAP
6380
b100
3100
2900
2d00
2500
2300
2300
7100
ENDCHAR
STARTCHAR C117
ENCODING 79
SWIDTH 692 0
DWIDTH 9 0
BBX 7 9 1 0
BITMAP
10
28
c6
82
82
82
c6
28
10
ENDCHAR
STARTCHAR C120
ENCODING 80
SWIDTH 692 0
DWIDTH 9 0
BBX 8 9 0 0
BITMAP
7e
a1
22
24
28
30
20
20
f8
ENDCHAR
STARTCHAR C121
ENCODING 81
SWIDTH 692 0
DWIDTH 9 0
BBX 7 9 1 0
BITMAP
10
28
c6
82
82
92
ce
2c
12
ENDCHAR
STARTCHAR C122
ENCODING 82
SWIDTH 692 0
DWIDTH 9 0
BBX 9 9 0 0
BITMAP
7c00
a200
2a00
2400
2a00
3200
2100
2100
7180
ENDCHAR
STARTCHAR C123
ENCODING 83
SWIDTH 692 0
DWIDTH 9 0
BBX 7 9 1 0
BITMAP
10
28
c6
62
10
8c
c6
28
10
ENDCHAR
STARTCHAR C124
ENCODING 84
SWIDTH 692 0
DWIDTH 9 0
BBX 9 9 0 0
BITMAP
ff80
8880
4900
0800
0800
0800
0800
0800
1c00
ENDCHAR
STARTCHAR C125
ENCODING 85
SWIDTH 692 0
DWIDTH 9 0
BBX 9 9 0 0
BITMAP
4100
c180
4100
4100
4100
4100
4100
3600
0800
ENDCHAR
STARTCHAR C126
ENCODING 86
SWIDTH 692 0
DWIDTH 9 0
BBX 9 9 0 0
BITMAP
6300
a280
2200
2200
1400
1400
1400
0800
0800
ENDCHAR
STARTCHAR C127
ENCODING 87
SWIDTH 692 0
DWIDTH 9 0
BBX 9 9 0 0
BITMAP
6300
a280
2200
2a00
2a00
2a00
3600
2200
2200
ENDCHAR
STARTCHAR C130
ENCODING 88
SWIDTH 692 0
DWIDTH 9 0
BBX 7 10 1 0
BITMAP
02
44
c4
28
28
10
28
28
44
ee
ENDCHAR
STARTCHAR C131
ENCODING 89
SWIDTH 692 0
DWIDTH 9 0
BBX 9 9 0 0
BITMAP
6300
a280
1400
1400
0800
0800
0800
0800
1c00
ENDCHAR
STARTCHAR C132
ENCODING 90
SWIDTH 692 0
DWIDTH 9 0
BBX 7 9 1 0
BITMAP
fe
84
48
08
10
20
24
42
fe
ENDCHAR
STARTCHAR C133
ENCODING 91
SWIDTH 692 0
DWIDTH 9 0
BBX 3 11 4 -1
BITMAP
20
c0
80
80
80
80
80
80
80
c0
20
ENDCHAR
STARTCHAR C134
ENCODING 92
SWIDTH 692 0
DWIDTH 9 0
BBX 7 7 1 1
BITMAP
80
40
20
10
08
04
06
ENDCHAR
STARTCHAR C135
ENCODING 93
SWIDTH 692 0
DWIDTH 9 0
BBX 3 11 2 -1
BITMAP
80
60
20
20
20
20
20
20
20
60
80
ENDCHAR
STARTCHAR C136
ENCODING 94
SWIDTH 692 0
DWIDTH 9 0
BBX 5 3 2 5
BITMAP
20
50
d8
ENDCHAR
STARTCHAR C137
ENCODING 95
SWIDTH 692 0
DWIDTH 9 0
BBX 9 2 0 -2
BITMAP
ff00
0080
ENDCHAR
STARTCHAR C140
ENCODING 96
SWIDTH 692 0
DWIDTH 9 0
BBX 3 3 4 6
BITMAP
c0
40
20
ENDCHAR
STARTCHAR C141
ENCODING 97
SWIDTH 692 0
DWIDTH 9 0
BBX 8 7 1 0
BITMAP
10
68
46
1a
62
8e
73
ENDCHAR
STARTCHAR C142
ENCODING 98
SWIDTH 692 0
DWIDTH 9 0
BBX 7 9 1 0
BITMAP
40
c0
48
54
62
42
62
54
e8
ENDCHAR
STARTCHAR C143
ENCODING 99
SWIDTH 692 0
DWIDTH 9 0
BBX 6 7 1 0
BITMAP
10
2c
c4
80
c4
2c
10
ENDCHAR
STARTCHAR C144
ENCODING 100
SWIDTH 692 0
DWIDTH 9 0
BBX 7 9 1 0
BITMAP
04
0c
24
54
8c
84
8c
56
24
ENDCHAR
STARTCHAR C145
ENCODING 101
SWIDTH 692 0
DWIDTH 9 0
BBX 6 7 1 0
BITMAP
10
2c
c8
90
e4
2c
10
ENDCHAR
STARTCHAR C146
ENCODING 102
SWIDTH 692 0
DWIDTH 9 0
BBX 7 9 1 0
BITMAP
08
14
22
24
20
78
e0
20
70
ENDCHAR
STARTCHAR C147
ENCODING 103
SWIDTH 692 0
DWIDTH 9 0
BBX 7 11 1 -4
BITMAP
10
2e
c4
82
c6
28
14
02
3c
c6
38
ENDCHAR
STARTCHAR C150
ENCODING 104
SWIDTH 692 0
DWIDTH 9 0
BBX 8 9 1 0
BITMAP
40
c0
48
54
62
42
42
42
e7
ENDCHAR
STARTCHAR C151
ENCODING 105
SWIDTH 692 0
DWIDTH 9 0
BBX 3 9 3 0
BITMAP
40
c0
00
40
c0
40
40
40
e0
ENDCHAR
STARTCHAR C152
ENCODING 106
SWIDTH 692 0
DWIDTH 9 0
BBX 4 13 1 -4
BITMAP
10
30
00
10
30
10
10
10
10
10
90
50
20
ENDCHAR
STARTCHAR C153
ENCODING 107
SWIDTH 692 0
DWIDTH 9 0
BBX 8 9 1 0
BITMAP
40
c0
42
54
48
54
64
42
e3
ENDCHAR
STARTCHAR C154
ENCODING 108
SWIDTH 692 0
DWIDTH 9 0
BBX 3 9 3 0
BITMAP
40
c0
40
40
40
40
40
40
e0
ENDCHAR
STARTCHAR C155
ENCODING 109
SWIDTH 692 0
DWIDTH 9 0
BBX 9 7 0 0
BITMAP
5200
ed00
4900
4900
4900
4900
eb80
ENDCHAR
STARTCHAR C156
ENCODING 110
SWIDTH 692 0
DWIDTH 9 0
BBX 8 7 1 0
BITMAP
48
d4
62
42
42
42
e7
ENDCHAR
STARTCHAR C157
ENCODING 111
SWIDTH 692 0
DWIDTH 9 0
BBX 7 7 1 0
BITMAP
10
28
c6
82
c6
28
10
ENDCHAR
STARTCHAR C160
ENCODING 112
SWIDTH 692 0
DWIDTH 9 0
BBX 7 11 1 -4
BITMAP
48
d4
62
42
62
54
48
40
40
c0
40
ENDCHAR
STARTCHAR C161
ENCODING 113
SWIDTH 692 0
DWIDTH 9 0
BBX 7 11 1 -4
BITMAP
24
5c
8c
84
8c
54
24
04
04
06
04
ENDCHAR
STARTCHAR C162
ENCODING 114
SWIDTH 692 0
DWIDTH 9 0
BBX 7 7 1 0
BITMAP
48
d4
62
44
40
40
e0
ENDCHAR
STARTCHAR C163
ENCODING 115
SWIDTH 692 0
DWIDTH 9 0
BBX 7 7 1 0
BITMAP
10
2c
c0
38
06
68
10
ENDCHAR
STARTCHAR C164
ENCODING 116
SWIDTH 692 0
DWIDTH 9 0
BBX 6 9 1 0
BITMAP
20
20
20
20
78
e0
20
24
38
ENDCHAR
STARTCHAR C165
ENCODING 117
SWIDTH 692 0
DWIDTH 9 0
BBX 7 7 1 0
BITMAP
44
c6
44
44
44
7c
10
ENDCHAR
STARTCHAR C166
ENCODING 118
SWIDTH 692 0
DWIDTH 9 0
BBX 7 7 1 0
BITMAP
44
c6
44
28
28
10
10
ENDCHAR
STARTCHAR C167
ENCODING 119
SWIDTH 692 0
DWIDTH 9 0
BBX 9 7 0 0
BITMAP
4100
c180
2a00
2a00
1400
1400
3600
ENDCHAR
STARTCHAR C170
ENCODING 120
SWIDTH 692 0
DWIDTH 9 0
BBX 7 7 1 0
BITMAP
42
c4
28
10
28
44
ee
ENDCHAR
STARTCHAR C171
ENCODING 121
SWIDTH 692 0
DWIDTH 9 0
BBX 6 10 1 -3
BITMAP
44
c4
28
28
10
10
28
20
40
80
ENDCHAR
STARTCHAR C172
ENCODING 122
SWIDTH 692 0
DWIDTH 9 0
BBX 7 7 1 0
BITMAP
fe
44
08
10
20
44
fe
ENDCHAR
STARTCHAR C173
ENCODING 123
SWIDTH 692 0
DWIDTH 9 0
BBX 5 11 2 -1
BITMAP
08
30
20
20
20
c0
20
20
20
30
08
ENDCHAR
STARTCHAR C174
ENCODING 124
SWIDTH 692 0
DWIDTH 9 0
BBX 3 13 3 -3
BITMAP
40
e0
00
40
40
40
40
40
40
40
00
e0
40
ENDCHAR
STARTCHAR C175
ENCODING 125
SWIDTH 692 0
DWIDTH 9 0
BBX 5 11 2 -1
BITMAP
80
60
20
20
20
18
20
20
20
60
80
ENDCHAR
STARTCHAR C176
ENCODING 126
SWIDTH 692 0
DWIDTH 9 0
BBX 7 3 1 5
BITMAP
62
54
8c
ENDCHAR
STARTCHAR C241
ENCODING 161
SWIDTH 692 0
DWIDTH 9 0
BBX 4 10 3 -2
BITMAP
c0
60
00
40
40
60
60
70
60
40
ENDCHAR
STARTCHAR C242
ENCODING 162
SWIDTH 692 0
DWIDTH 9 0
BBX 6 9 1 -1
BITMAP
18
10
2c
d4
90
d4
2c
10
30
ENDCHAR
STARTCHAR C243
ENCODING 163
SWIDTH 692 0
DWIDTH 9 0
BBX 8 10 0 -1
BITMAP
30
28
24
a0
f8
a0
22
21
bf
c0
ENDCHAR
STARTCHAR C244
ENCODING 164
SWIDTH 692 0
DWIDTH 9 0
BBX 7 7 1 1
BITMAP
82
54
28
44
28
54
82
ENDCHAR
STARTCHAR C245
ENCODING 165
SWIDTH 692 0
DWIDTH 9 0
BBX 9 9 0 0
BITMAP
6300
a280
1400
1500
7f00
0800
7f00
4800
1c00
ENDCHAR
STARTCHAR C246
ENCODING 166
SWIDTH 692 0
DWIDTH 9 0
BBX 1 9 4 0
BITMAP
80
80
80
80
00
80
80
80
80
ENDCHAR
STARTCHAR C247
ENCODING 167
SWIDTH 692 0
DWIDTH 9 0
BBX 7 12 1 -2
BITMAP
10
2c
c0
30
28
c6
c6
28
18
06
68
10
ENDCHAR
STARTCHAR C250
ENCODING 168
SWIDTH 692 0
DWIDTH 9 0
BBX 7 2 1 8
BITMAP
ee
44
ENDCHAR
STARTCHAR C251
ENCODING 169
SWIDTH 692 0
DWIDTH 9 0
BBX 9 13 0 -3
BITMAP
0800
1400
2200
c180
8880
9680
a080
9680
8880
c180
2200
1400
0800
ENDCHAR
STARTCHAR C252
ENCODING 170
SWIDTH 692 0
DWIDTH 9 0
BBX 6 8 1 2
BITMAP
20
d0
08
78
88
74
00
fc
ENDCHAR
STARTCHAR C253
ENCODING 171
SWIDTH 692 0
DWIDTH 9 0
BBX 8 5 0 2
BITMAP
11
33
cc
33
11
ENDCHAR
STARTCHAR C254
ENCODING 172
SWIDTH 692 0
DWIDTH 9 0
BBX 7 6 0 -1
BITMAP
02
fe
02
02
06
02
ENDCHAR
STARTCHAR C255
ENCODING 173
SWIDTH 692 0
DWIDTH 9 0
BBX 7 1 0 4
BITMAP
fe
ENDCHAR
STARTCHAR C256
ENCODING 174
SWIDTH 692 0
DWIDTH 9 0
BBX 9 13 0 -3
BITMAP
0800
1400
2200
c180
9c80
b280
9480
9a80
9280
c180
2200
1400
0800
ENDCHAR
STARTCHAR C257
ENCODING 175
SWIDTH 692 0
DWIDTH 9 0
BBX 8 1 0 8
BITMAP
ff
ENDCHAR
STARTCHAR C260
ENCODING 176
SWIDTH 692 0
DWIDTH 9 0
BBX 5 5 2 5
BITMAP
20
50
88
50
20
ENDCHAR
STARTCHAR C261
ENCODING 177
SWIDTH 692 0
DWIDTH 9 0
BBX 5 7 2 1
BITMAP
20
20
f8
20
20
00
f8
ENDCHAR
STARTCHAR C262
ENCODING 178
SWIDTH 692 0
DWIDTH 9 0
BBX 4 6 2 4
BITMAP
40
a0
90
20
40
f0
ENDCHAR
STARTCHAR C263
ENCODING 179
SWIDTH 692 0
DWIDTH 9 0
BBX 5 6 2 4
BITMAP
60
98
20
10
98
60
ENDCHAR
STARTCHAR C264
ENCODING 180
SWIDTH 692 0
DWIDTH 9 0
BBX 5 3 2 6
BITMAP
38
60
80
ENDCHAR
STARTCHAR C265
ENCODING 181
SWIDTH 692 0
DWIDTH 9 0
BBX 7 10 1 -4
BITMAP
44
46
44
44
64
5c
42
40
c0
40
ENDCHAR
STARTCHAR C266
ENCODING 182
SWIDTH 692 0
DWIDTH 9 0
BBX 8 9 0 0
BITMAP
7e
f5
74
34
14
14
14
14
7f
ENDCHAR
STARTCHAR C267
ENCODING 183
SWIDTH 692 0
DWIDTH 9 0
BBX 2 2 3 3
BITMAP
40
c0
ENDCHAR
STARTCHAR C270
ENCODING 184
SWIDTH 692 0
DWIDTH 9 0
BBX 5 3 2 -4
BITMAP
38
60
80
ENDCHAR
STARTCHAR C271
ENCODING 185
SWIDTH 692 0
DWIDTH 9 0
BBX 4 6 2 4
BITMAP
20
60
a0
20
20
70
ENDCHAR
STARTCHAR C272
ENCODING 186
SWIDTH 692 0
DWIDTH 9 0
BBX 5 7 2 3
BITMAP
20
50
88
50
20
00
f8
ENDCHAR
STARTCHAR C273
ENCODING 187
SWIDTH 692 0
DWIDTH 9 0
BBX 8 5 0 2
BITMAP
88
cc
33
cc
88
ENDCHAR
STARTCHAR C274
ENCODING 188
SWIDTH 692 0
DWIDTH 9 0
BBX 9 11 0 -1
BITMAP
2000
6000
a100
2200
7400
0900
1300
2500
4f00
c100
0380
ENDCHAR
STARTCHAR C275
ENCODING 189
SWIDTH 692 0
DWIDTH 9 0
BBX 9 11 0 -1
BITMAP
2000
6000
a100
2200
7400
0a00
1500
2480
4100
c200
0780
ENDCHAR
STARTCHAR C276
ENCODING 190
SWIDTH 692 0
DWIDTH 9 0
BBX 9 11 0 -1
BITMAP
c000
3000
e100
2200
3400
c900
1300
2500
4f00
c100
0380
ENDCHAR
STARTCHAR C277
ENCODING 191
SWIDTH 692 0
DWIDTH 9 0
BBX 7 9 1 0
BITMAP
10
00
10
18
10
62
c6
28
10
ENDCHAR
STARTCHAR C300
ENCODING 192
SWIDTH 692 0
DWIDTH 9 0
BBX 9 10 0 0
BITMAP
1000
0800
0000
1800
2800
1400
2380
7e00
c100
e380
ENDCHAR
STARTCHAR C301
ENCODING 193
SWIDTH 692 0
DWIDTH 9 0
BBX 9 10 0 0
BITMAP
0800
1000
0000
1800
2800
1400
2380
7e00
c100
e380
ENDCHAR
STARTCHAR C302
ENCODING 194
SWIDTH 692 0
DWIDTH 9 0
BBX 9 10 0 0
BITMAP
1000
2800
0000
1800
2800
1400
2380
7e00
c100
e380
ENDCHAR
STARTCHAR C303
ENCODING 195
SWIDTH 692 0
DWIDTH 9 0
BBX 9 10 0 0
BITMAP
1400
2800
0000
1800
2800
1400
2380
7e00
c100
e380
ENDCHAR
STARTCHAR C304
ENCODING 196
SWIDTH 692 0
DWIDTH 9 0
BBX 9 9 0 0
BITMAP
2800
0000
1800
2800
1400
2380
7e00
c100
e380
ENDCHAR
STARTCHAR C305
ENCODING 197
SWIDTH 692 0
DWIDTH 9 0
BBX 9 10 0 0
BITMAP
0800
1400
0800
1800
2800
1400
2380
7e00
c100
e380
ENDCHAR
STARTCHAR C306
ENCODING 198
SWIDTH 692 0
DWIDTH 9 0
BBX 9 9 0 0
BITMAP
1f80
2880
1800
1a00
2f00
7a00
c800
4880
ef80
ENDCHAR
STARTCHAR C307
ENCODING 199
SWIDTH 692 0
DWIDTH 9 0
BBX 7 12 1 -3
BITMAP
10
2a
c6
80
80
80
c2
2c
10
10
30
10
ENDCHAR
STARTCHAR C310
ENCODING 200
SWIDTH 692 0
DWIDTH 9 0
BBX 8 10 0 0
BITMAP
10
08
00
7f
a1
24
3e
24
21
ff
ENDCHAR
STARTCHAR C311
ENCODING 201
SWIDTH 692 0
DWIDTH 9 0
BBX 8 10 0 0
BITMAP
08
10
00
7f
a1
24
3e
24
21
ff
ENDCHAR
STARTCHAR C312
ENCODING 202
SWIDTH 692 0
DWIDTH 9 0
BBX 8 10 0 0
BITMAP
10
28
00
7f
a1
24
3e
24
21
ff
ENDCHAR
STARTCHAR C313
ENCODING 203
SWIDTH 692 0
DWIDTH 9 0
BBX 8 9 0 0
BITMAP
28
00
7f
a1
24
3e
24
21
ff
ENDCHAR
STARTCHAR C314
ENCODING 204
SWIDTH 692 0
DWIDTH 9 0
BBX 7 10 1 0
BITMAP
20
10
00
fe
54
10
10
10
54
fe
ENDCHAR
STARTCHAR C315
ENCODING 205
SWIDTH 692 0
DWIDTH 9 0
BBX 7 10 1 0
BITMAP
08
10
00
fe
54
10
10
10
54
fe
ENDCHAR
STARTCHAR C316
ENCODING 206
SWIDTH 692 0
DWIDTH 9 0
BBX 7 10 1 0
BITMAP
10
28
00
fe
54
10
10
10
54
fe
ENDCHAR
STARTCHAR C317
ENCODING 207
SWIDTH 692 0
DWIDTH 9 0
BBX 7 9 1 0
BITMAP
28
00
fe
54
10
10
10
54
fe
ENDCHAR
STARTCHAR C320
ENCODING 208
SWIDTH 692 0
DWIDTH 9 0
BBX 9 9 0 0
BITMAP
7800
a400
2200
2100
fc80
2880
2100
2200
fc00
ENDCHAR
STARTCHAR C321
ENCODING 209
SWIDTH 692 0
DWIDTH 9 0
BBX 9 10 0 0
BITMAP
3100
2a00
4600
0000
7380
a900
2500
2300
2100
7100
ENDCHAR
STARTCHAR C322
ENCODING 210
SWIDTH 692 0
DWIDTH 9 0
BBX 7 10 1 0
BITMAP
10
08
10
28
c6
82
82
c6
28
10
ENDCHAR
STARTCHAR C323
ENCODING 211
SWIDTH 692 0
DWIDTH 9 0
BBX 7 10 1 0
BITMAP
10
20
10
28
c6
82
82
c6
28
10
ENDCHAR
STARTCHAR C324
ENCODING 212
SWIDTH 692 0
DWIDTH 9 0
BBX 7 10 1 0
BITMAP
10
28
00
38
c6
82
82
c6
28
10
ENDCHAR
STARTCHAR C325
ENCODING 213
SWIDTH 692 0
DWIDTH 9 0
BBX 7 10 1 0
BITMAP
14
28
00
38
c6
82
82
c6
28
10
ENDCHAR
STARTCHAR C326
ENCODING 214
SWIDTH 692 0
DWIDTH 9 0
BBX 7 10 1 0
BITMAP
28
00
10
28
c6
82
82
c6
28
10
ENDCHAR
STARTCHAR C327
ENCODING 215
SWIDTH 692 0
DWIDTH 9 0
BBX 5 5 2 2
BITMAP
88
50
20
50
88
ENDCHAR
STARTCHAR C330
ENCODING 216
SWIDTH 692 0
DWIDTH 9 0
BBX 7 9 1 0
BITMAP
14
28
d6
92
92
92
d6
28
50
ENDCHAR
STARTCHAR C331
ENCODING 217
SWIDTH 692 0
DWIDTH 9 0
BBX 9 10 0 0
BITMAP
1000
0800
4100
c180
4100
4100
4100
4100
3600
0800
ENDCHAR
STARTCHAR C332
ENCODING 218
SWIDTH 692 0
DWIDTH 9 0
BBX 9 10 0 0
BITMAP
0400
0800
4100
c180
4100
4100
4100
4100
3600
0800
ENDCHAR
STARTCHAR C333
ENCODING 219
SWIDTH 692 0
DWIDTH 9 0
BBX 9 10 0 0
BITMAP
0800
1400
4100
c180
4100
4100
4100
4100
3600
0800
ENDCHAR
STARTCHAR C334
ENCODING 220
SWIDTH 692 0
DWIDTH 9 0
BBX 9 9 0 0
BITMAP
1400
4100
c180
4100
4100
4100
4100
3600
0800
ENDCHAR
STARTCHAR C335
ENCODING 221
SWIDTH 692 0
DWIDTH 9 0
BBX 9 10 0 0
BITMAP
0400
0800
6300
a280
1400
1400
0800
0800
0800
1c00
ENDCHAR
STARTCHAR C336
ENCODING 222
SWIDTH 692 0
DWIDTH 9 0
BBX 6 12 1 -2
BITMAP
40
c0
40
78
48
44
48
78
40
40
40
40
ENDCHAR
STARTCHAR C337
ENCODING 223
SWIDTH 692 0
DWIDTH 9 0
BBX 7 10 1 -1
BITMAP
78
8c
88
98
a4
86
8c
88
90
a0
ENDCHAR
STARTCHAR C340
ENCODING 224
SWIDTH 692 0
DWIDTH 9 0
BBX 8 10 1 0
BITMAP
20
10
00
10
68
46
1a
62
8e
73
ENDCHAR
STARTCHAR C341
ENCODING 225
SWIDTH 692 0
DWIDTH 9 0
BBX 8 10 1 0
BITMAP
10
20
00
10
68
46
1a
62
8e
73
ENDCHAR
STARTCHAR C342
ENCODING 226
SWIDTH 692 0
DWIDTH 9 0
BBX 8 10 1 0
BITMAP
10
28
00
10
68
46
1a
62
8e
73
ENDCHAR
STARTCHAR C343
ENCODING 227
SWIDTH 692 0
DWIDTH 9 0
BBX 8 10 1 0
BITMAP
14
28
00
10
68
46
1a
62
8e
73
ENDCHAR
STARTCHAR C344
ENCODING 228
SWIDTH 692 0
DWIDTH 9 0
BBX 8 9 1 0
BITMAP
28
00
10
68
46
1a
62
8e
73
ENDCHAR
STARTCHAR C345
ENCODING 229
SWIDTH 692 0
DWIDTH 9 0
BBX 8 10 1 0
BITMAP
10
28
10
10
68
46
1a
62
8e
73
ENDCHAR
STARTCHAR C346
ENCODING 230
SWIDTH 692 0
DWIDTH 9 0
BBX 9 7 0 0
BITMAP
1200
6d80
4900
3a00
4c00
9a80
6300
ENDCHAR
STARTCHAR C347
ENCODING 231
SWIDTH 692 0
DWIDTH 9 0
BBX 6 9 1 -2
BITMAP
10
2c
c4
80
c4
2c
10
30
10
ENDCHAR
STARTCHAR C350
ENCODING 232
SWIDTH 692 0
DWIDTH 9 0
BBX 6 10 1 0
BITMAP
20
10
00
10
2c
c8
90
e4
2c
10
ENDCHAR
STARTCHAR C351
ENCODING 233
SWIDTH 692 0
DWIDTH 9 0
BBX 6 10 1 0
BITMAP
08
10
00
10
2c
c8
90
e4
2c
10
ENDCHAR
STARTCHAR C352
ENCODING 234
SWIDTH 692 0
DWIDTH 9 0
BBX 6 10 1 0
BITMAP
10
28
00
10
2c
c8
90
e4
2c
10
ENDCHAR
STARTCHAR C353
ENCODING 235
SWIDTH 692 0
DWIDTH 9 0
BBX 6 9 1 0
BITMAP
28
00
10
2c
c8
90
e4
2c
10
ENDCHAR
STARTCHAR C354
ENCODING 236
SWIDTH 692 0
DWIDTH 9 0
BBX 4 10 2 0
BITMAP
80
60
20
00
20
60
20
20
20
70
ENDCHAR
STARTCHAR C355
ENCODING 237
SWIDTH 692 0
DWIDTH 9 0
BBX 4 10 3 0
BITMAP
10
60
40
00
40
c0
40
40
40
e0
ENDCHAR
STARTCHAR C356
ENCODING 238
SWIDTH 692 0
DWIDTH 9 0
BBX 5 10 2 0
BITMAP
20
50
d8
00
20
60
20
20
20
70
ENDCHAR
STARTCHAR C357
ENCODING 239
SWIDTH 692 0
DWIDTH 9 0
BBX 3 9 3 0
BITMAP
a0
a0
00
40
c0
40
40
40
e0
ENDCHAR
STARTCHAR C360
ENCODING 240
SWIDTH 692 0
DWIDTH 9 0
BBX 6 10 1 0
BITMAP
28
10
28
04
34
cc
84
c4
28
10
ENDCHAR
STARTCHAR C361
ENCODING 241
SWIDTH 692 0
DWIDTH 9 0
BBX 8 10 1 0
BITMAP
62
54
8c
00
48
d4
62
42
42
e7
ENDCHAR
STARTCHAR C362
ENCODING 242
SWIDTH 692 0
DWIDTH 9 0
BBX 7 10 1 0
BITMAP
20
10
00
10
28
c6
82
c6
28
10
ENDCHAR
STARTCHAR C363
ENCODING 243
SWIDTH 692 0
DWIDTH 9 0
BBX 7 10 1 0
BITMAP
10
20
00
10
28
c6
82
c6
28
10
ENDCHAR
STARTCHAR C364
ENCODING 244
SWIDTH 692 0
DWIDTH 9 0
BBX 7 10 1 0
BITMAP
10
28
00
10
28
c6
82
c6
28
10
ENDCHAR
STARTCHAR C365
ENCODING 245
SWIDTH 692 0
DWIDTH 9 0
BBX 7 10 1 0
BITMAP
14
28
00
10
28
c6
82
c6
28
10
ENDCHAR
STARTCHAR C366
ENCODING 246
SWIDTH 692 0
DWIDTH 9 0
BBX 7 9 1 0
BITMAP
28
00
10
28
c6
82
c6
28
10
ENDCHAR
STARTCHAR C367
ENCODING 247
SWIDTH 692 0
DWIDTH 9 0
BBX 5 5 2 2
BITMAP
20
00
f8
00
20
ENDCHAR
STARTCHAR C370
ENCODING 248
SWIDTH 692 0
DWIDTH 9 0
BBX 7 7 1 0
BITMAP
14
28
d6
92
d6
28
50
ENDCHAR
STARTCHAR C371
ENCODING 249
SWIDTH 692 0
DWIDTH 9 0
BBX 7 10 1 0
BITMAP
20
10
00
44
c6
44
44
44
7c
10
ENDCHAR
STARTCHAR C372
ENCODING 250
SWIDTH 692 0
DWIDTH 9 0
BBX 7 10 1 0
BITMAP
08
10
00
44
c6
44
44
44
7c
10
ENDCHAR
STARTCHAR C373
ENCODING 251
SWIDTH 692 0
DWIDTH 9 0
BBX 7 10 1 0
BITMAP
10
28
00
44
c6
44
44
44
7c
10
ENDCHAR
STARTCHAR C374
ENCODING 252
SWIDTH 692 0
DWIDTH 9 0
BBX 7 9 1 0
BITMAP
28
00
44
c6
44
44
44
7c
10
ENDCHAR
STARTCHAR C375
ENCODING 253
SWIDTH 692 0
DWIDTH 9 0
BBX 6 13 1 -3
BITMAP
18
20
00
44
c4
28
28
10
10
28
20
40
80
ENDCHAR
STARTCHAR C376
ENCODING 254
SWIDTH 692 0
DWIDTH 9 0
BBX 6 12 1 -2
BITMAP
40
c0
40
50
68
44
68
50
40
40
40
40
ENDCHAR
STARTCHAR C377
ENCODING 255
SWIDTH 692 0
DWIDTH 9 0
BBX 6 12 1 -3
BITMAP
28
00
44
c4
28
28
10
10
28
20
40
80
ENDCHAR
ENDFONT
